<svg xmlns="http://www.w3.org/2000/svg" xmlns:xlink="http://www.w3.org/1999/xlink" width="2000" zoomAndPan="magnify" viewBox="0 0 1500 1499.999933" height="2000" preserveAspectRatio="xMidYMid meet" version="1.0"><defs><clipPath id="c8de6975a7"><path d="M 57.191406 54 L 1442.441406 54 L 1442.441406 1446.890625 L 57.191406 1446.890625 Z M 57.191406 54 " clip-rule="nonzero"/></clipPath><clipPath id="8130d733db"><path d="M 473.675781 493.042969 L 572.160156 493.042969 L 572.160156 591.527344 L 473.675781 591.527344 Z M 473.675781 493.042969 " clip-rule="nonzero"/></clipPath><clipPath id="4b08e6ccd3"><path d="M 522.917969 493.042969 C 495.722656 493.042969 473.675781 515.089844 473.675781 542.285156 C 473.675781 569.480469 495.722656 591.527344 522.917969 591.527344 C 550.113281 591.527344 572.160156 569.480469 572.160156 542.285156 C 572.160156 515.089844 550.113281 493.042969 522.917969 493.042969 Z M 522.917969 493.042969 " clip-rule="nonzero"/></clipPath><clipPath id="0285932b7d"><path d="M 0.675781 0.0429688 L 99.160156 0.0429688 L 99.160156 98.527344 L 0.675781 98.527344 Z M 0.675781 0.0429688 " clip-rule="nonzero"/></clipPath><clipPath id="e33c44d66b"><path d="M 49.917969 0.0429688 C 22.722656 0.0429688 0.675781 22.089844 0.675781 49.285156 C 0.675781 76.480469 22.722656 98.527344 49.917969 98.527344 C 77.113281 98.527344 99.160156 76.480469 99.160156 49.285156 C 99.160156 22.089844 77.113281 0.0429688 49.917969 0.0429688 Z M 49.917969 0.0429688 " clip-rule="nonzero"/></clipPath><clipPath id="bb4d23397a"><rect x="0" width="100" y="0" height="99"/></clipPath></defs><g clip-path="url(#c8de6975a7)"><path fill="#ffffff" d="M 1240.46875 256.433594 C 1110.269531 126.035156 937.128906 54.089844 752.636719 54.089844 C 372.5 54.089844 63.109375 363.5625 62.972656 744.011719 C 62.972656 865.597656 94.695312 984.359375 155.046875 1088.941406 L 57.191406 1446.464844 L 422.804688 1350.492188 C 523.550781 1405.503906 636.957031 1434.417969 752.363281 1434.488281 L 752.636719 1434.488281 C 1132.703125 1434.488281 1442.164062 1124.949219 1442.234375 744.5625 C 1442.234375 560.191406 1370.667969 386.898438 1240.398438 256.433594 Z M 752.636719 1317.996094 L 752.429688 1317.996094 C 649.621094 1317.996094 548.667969 1290.320312 460.652344 1238.0625 L 439.734375 1225.601562 L 222.761719 1282.539062 L 280.632812 1070.902344 L 267.007812 1049.214844 C 209.617188 957.921875 179.335938 852.378906 179.40625 744.011719 C 179.542969 427.863281 436.707031 170.582031 752.84375 170.582031 C 905.957031 170.582031 1049.847656 230.339844 1158.097656 338.777344 C 1266.34375 447.140625 1325.867188 591.238281 1325.796875 744.496094 C 1325.660156 1060.710938 1068.5 1317.996094 752.566406 1317.996094 Z M 1067.054688 888.523438 C 1049.847656 879.917969 965.136719 838.195312 949.3125 832.484375 C 933.484375 826.699219 922.058594 823.875 910.566406 841.089844 C 899.074219 858.371094 866.042969 897.199219 855.996094 908.695312 C 845.949219 920.195312 835.902344 921.640625 818.628906 912.964844 C 801.425781 904.359375 745.894531 886.113281 680.035156 827.386719 C 628.839844 781.671875 594.222656 725.21875 584.175781 707.9375 C 574.128906 690.65625 583.144531 681.363281 591.746094 672.757812 C 599.453125 665.042969 608.949219 652.582031 617.621094 642.53125 C 626.222656 632.480469 629.113281 625.25 634.824219 613.753906 C 640.605469 602.253906 637.714844 592.203125 633.378906 583.527344 C 629.042969 574.921875 594.636719 490.035156 580.253906 455.542969 C 566.285156 421.945312 552.039062 426.488281 541.511719 425.9375 C 531.464844 425.453125 519.972656 425.316406 508.480469 425.316406 C 496.988281 425.316406 478.339844 429.585938 462.511719 446.867188 C 446.683594 464.148438 402.230469 505.867188 402.230469 590.6875 C 402.230469 675.511719 463.957031 757.507812 472.628906 769.074219 C 481.230469 780.570312 594.15625 954.6875 767.019531 1029.386719 C 808.101562 1047.148438 840.238281 1057.753906 865.289062 1065.738281 C 906.578125 1078.886719 944.148438 1077.03125 973.808594 1072.554688 C 1006.910156 1067.597656 1075.722656 1030.832031 1090.105469 990.558594 C 1104.488281 950.28125 1104.488281 915.789062 1100.152344 908.558594 C 1095.816406 901.332031 1084.324219 897.0625 1067.121094 888.386719 Z M 1067.054688 888.523438 " fill-opacity="1" fill-rule="evenodd"/></g><g clip-path="url(#8130d733db)"><g clip-path="url(#4b08e6ccd3)"><g transform="matrix(1, 0, 0, 1, 473, 493)"><g clip-path="url(#bb4d23397a)"><g clip-path="url(#0285932b7d)"><g clip-path="url(#e33c44d66b)"><path fill="#ffffff" d="M 0.675781 0.0429688 L 99.160156 0.0429688 L 99.160156 98.527344 L 0.675781 98.527344 Z M 0.675781 0.0429688 " fill-opacity="1" fill-rule="nonzero"/></g></g></g></g></g></g></svg>